<svg width="451" height="209" viewBox="0 0 451 209" fill="none" xmlns="http://www.w3.org/2000/svg">
<path d="M247.032 68.6174C245.948 70.3376 244.942 72.1483 244.015 74.0412L243.566 73.8214C242.665 75.6621 241.839 77.5792 241.09 79.5652L241.558 79.7416C241.158 80.8038 240.779 81.886 240.423 82.9873C240.045 82.7614 239.666 82.5389 239.285 82.3199L239.036 82.7534C237.257 81.7311 235.449 80.7859 233.615 79.9203L233.829 79.4682C231.964 78.5876 230.072 77.7889 228.159 77.0745L227.984 77.543C226.066 76.8272 224.127 76.1969 222.172 75.6548L222.305 75.173C220.32 74.6228 218.317 74.1629 216.302 73.7959L216.212 74.2879C214.204 73.9222 212.183 73.6497 210.155 73.4732L210.198 72.975C208.152 72.797 206.099 72.7158 204.042 72.7345L204.047 73.2344C202.014 73.2528 199.978 73.3696 197.945 73.5874L197.892 73.0902C195.859 73.308 193.829 73.6259 191.807 74.0468L191.909 74.5363C189.928 74.9485 187.954 75.4602 185.992 76.0741L185.842 75.5969C184.866 75.9024 183.892 76.233 182.921 76.5891C181.938 76.9498 180.968 77.333 180.012 77.7382L180.207 78.1986C178.29 79.0103 176.428 79.9107 174.622 80.8945L174.383 80.4554C172.546 81.4558 170.767 82.5418 169.048 83.708L169.329 84.1218C167.615 85.2842 165.962 86.5269 164.37 87.8445L164.051 87.4593C162.448 88.7868 160.906 90.1897 159.43 91.6624L159.783 92.0164C158.322 93.4732 156.926 94.999 155.594 96.5884L155.211 96.2674C153.878 97.8585 152.611 99.5128 151.411 101.225L151.821 101.512C150.64 103.197 149.525 104.939 148.477 106.732L148.045 106.48C147.001 108.268 146.024 110.106 145.115 111.991L145.566 112.208C144.672 114.061 143.846 115.958 143.088 117.896L142.623 117.714C142.58 117.823 142.537 117.933 142.495 118.042C140.732 117.22 138.945 116.471 137.14 115.796L136.965 116.265C135.048 115.549 133.109 114.919 131.153 114.377L131.286 113.895C129.301 113.345 127.298 112.885 125.283 112.518L125.193 113.01C123.185 112.644 121.164 112.372 119.136 112.195L119.179 111.697C117.133 111.519 115.08 111.438 113.023 111.456L113.028 111.956C110.995 111.975 108.959 112.091 106.926 112.309L106.873 111.812C104.84 112.03 102.811 112.348 100.788 112.769L100.89 113.258C98.9089 113.67 96.9351 114.182 94.9728 114.796L94.8235 114.319C93.8468 114.624 92.873 114.955 91.9025 115.311C90.9194 115.672 89.9494 116.055 88.9928 116.46L89.1878 116.92C87.2714 117.732 85.4092 118.633 83.6031 119.616L83.3639 119.177C81.5273 120.178 79.7484 121.264 78.0293 122.43L78.31 122.844C76.5966 124.006 74.9429 125.249 73.3512 126.566L73.0324 126.181C71.4287 127.509 69.8875 128.912 68.4111 130.384L68.7642 130.738C67.3036 132.195 65.9066 133.721 64.5753 135.31L64.192 134.989C62.8593 136.58 61.592 138.235 60.3923 139.947L60.8018 140.234C59.6209 141.919 58.5058 143.661 57.4583 145.454L57.0265 145.202C55.9822 146.99 55.0049 148.828 54.0965 150.712L54.5469 150.93C53.6535 152.783 52.827 154.68 52.0694 156.618L51.6037 156.435C50.8508 158.361 50.1656 160.325 49.5497 162.323L50.0275 162.471C49.4221 164.435 48.884 166.434 48.4152 168.461L47.9281 168.348C47.4623 170.362 47.0646 172.404 46.7364 174.469L47.2302 174.548C47.1779 174.877 47.1274 175.207 47.0787 175.537C46.7907 175.329 46.5022 175.125 46.2134 174.926L46.4975 174.514C44.782 173.33 43.0508 172.295 41.314 171.42L41.0889 171.866C39.2465 170.937 37.4005 170.191 35.5636 169.64L35.7073 169.161C33.7086 168.562 31.7161 168.187 29.746 168.054L29.7124 168.553C27.7007 168.418 25.7172 168.54 23.7797 168.936L23.6796 168.446C22.687 168.649 21.7062 168.922 20.7396 169.267C19.7637 169.616 18.8204 170.032 17.9102 170.511L18.1433 170.954C16.3808 171.882 14.7448 173.057 13.2398 174.453L12.8998 174.086C11.4388 175.441 10.1018 176.998 8.8918 178.734L9.30197 179.02C8.19139 180.613 7.18719 182.362 6.29245 184.251L5.84057 184.037C4.99744 185.817 4.25141 187.718 3.60445 189.724L4.08032 189.877C3.48208 191.733 2.96869 193.681 2.54217 195.713L2.05284 195.61C1.64717 197.542 1.31971 199.547 1.07196 201.616L1.56841 201.675C1.33454 203.628 1.17206 205.639 1.08241 207.699L0.582883 207.678C0.496649 209.66 0.47745 211.688 0.526483 213.754L1.02634 213.743C1.07326 215.72 1.18299 217.733 1.35666 219.776L0.858454 219.818C1.02717 221.803 1.2559 223.815 1.54566 225.849L2.04066 225.778C2.32073 227.745 2.65811 229.732 3.05374 231.735L2.56322 231.832C2.95045 233.792 3.3932 235.768 3.89234 237.753L4.37725 237.632C4.86317 239.565 5.40279 241.508 5.9969 243.456L5.51865 243.602C5.81236 244.565 6.11933 245.529 6.43966 246.495C6.75607 247.448 7.0823 248.393 7.41798 249.328L7.88858 249.159C8.5685 251.053 9.28732 252.909 10.0419 254.725L9.58019 254.916C10.3568 256.784 11.1711 258.609 12.0198 260.388L12.471 260.173C13.3398 261.993 14.2446 263.765 15.1818 265.484L14.7428 265.724C15.7145 267.506 16.721 269.233 17.7583 270.901L18.1828 270.637C19.2528 272.357 20.3554 274.014 21.4863 275.603L21.0789 275.893C22.2637 277.557 23.4796 279.148 24.7216 280.66L25.108 280.343C26.4019 281.919 27.7237 283.408 29.0677 284.806L28.7072 285.153C30.1348 286.638 31.5881 288.021 33.0601 289.297L33.3875 288.919C34.9373 290.262 36.5069 291.483 38.0882 292.574L37.8042 292.986C39.5196 294.17 41.2509 295.205 42.9877 296.08L43.2128 295.634C45.0551 296.563 46.9011 297.309 48.738 297.86L48.5943 298.339C50.593 298.939 52.5856 299.313 54.5556 299.446L54.5892 298.947C56.6009 299.082 58.5844 298.96 60.5219 298.564L60.622 299.054C61.6146 298.851 62.5954 298.578 63.5621 298.233C64.5379 297.884 65.4813 297.468 66.3914 296.989L66.1583 296.546C67.9209 295.618 69.5568 294.443 71.0619 293.047L71.4019 293.414C72.8629 292.059 74.1998 290.502 75.4098 288.766L74.9997 288.48C76.1102 286.887 77.1144 285.138 78.0092 283.249L78.4611 283.463C79.3042 281.683 80.0502 279.782 80.6972 277.776L80.2213 277.623C80.8196 275.767 81.3329 273.819 81.7595 271.787L82.2488 271.89C82.6545 269.958 82.9819 267.953 83.2297 265.884L82.7332 265.825C82.7855 265.389 82.8342 264.949 82.8793 264.507C83.7087 265.122 84.5471 265.719 85.3938 266.297L85.1117 266.71C86.8151 267.874 88.5522 268.965 90.319 269.981L90.5681 269.547C92.3465 270.569 94.1547 271.515 95.9883 272.38L95.7749 272.832C97.6402 273.713 99.5318 274.512 101.445 275.226L101.62 274.758C103.537 275.473 105.476 276.104 107.432 276.646L107.299 277.128C109.284 277.678 111.287 278.138 113.302 278.505L113.391 278.013C115.4 278.378 117.421 278.651 119.449 278.827L119.406 279.326C121.452 279.504 123.505 279.585 125.561 279.566L125.557 279.066C127.59 279.048 129.626 278.931 131.659 278.713L131.712 279.21C133.744 278.993 135.774 278.675 137.797 278.254L137.695 277.764C139.676 277.352 141.65 276.84 143.612 276.227L143.761 276.704C144.738 276.398 145.712 276.068 146.682 275.711C147.665 275.351 148.635 274.967 149.592 274.562L149.397 274.102C151.314 273.29 153.176 272.39 154.982 271.406L155.221 271.845C157.058 270.845 158.837 269.759 160.556 268.592L160.275 268.179C161.988 267.016 163.642 265.774 165.234 264.456L165.553 264.841C167.156 263.514 168.697 262.111 170.174 260.638L169.821 260.284C171.281 258.827 172.678 257.302 174.01 255.712L174.393 256.033C175.726 254.442 176.993 252.788 178.193 251.076L177.783 250.789C178.964 249.104 180.079 247.362 181.127 245.568L181.558 245.821C182.603 244.033 183.58 242.194 184.488 240.31L184.038 240.093C184.931 238.24 185.758 236.342 186.516 234.405L186.981 234.587C187.024 234.478 187.067 234.368 187.109 234.258C188.872 235.081 190.658 235.83 192.464 236.504L192.639 236.036C194.556 236.751 196.495 237.382 198.451 237.924L198.318 238.406C200.303 238.956 202.305 239.416 204.321 239.783L204.41 239.291C206.419 239.656 208.44 239.929 210.468 240.105L210.425 240.604C212.471 240.782 214.524 240.863 216.58 240.844L216.576 240.344C218.609 240.326 220.645 240.209 222.678 239.991L222.731 240.488C224.763 240.271 226.793 239.953 228.816 239.532L228.714 239.042C230.695 238.63 232.669 238.118 234.631 237.505L234.78 237.982C235.757 237.676 236.731 237.346 237.701 236.99C238.684 236.629 239.654 236.246 240.611 235.84L240.416 235.38C242.332 234.568 244.195 233.668 246.001 232.684L246.24 233.123C248.077 232.123 249.855 231.037 251.574 229.871L251.294 229.457C253.007 228.294 254.661 227.052 256.253 225.734L256.571 226.119C258.175 224.792 259.716 223.389 261.193 221.916L260.84 221.562C262.3 220.105 263.697 218.58 265.029 216.99L265.412 217.311C266.745 215.72 268.012 214.066 269.211 212.354L268.802 212.067C269.983 210.382 271.098 208.64 272.146 206.847L272.577 207.099C273.622 205.311 274.599 203.472 275.507 201.588L275.057 201.371C275.301 200.864 275.541 200.354 275.775 199.84C276.802 200.662 277.839 201.45 278.884 202.203L279.176 201.797C280.863 203.011 282.572 204.132 284.297 205.154L284.042 205.584C285.845 206.653 287.666 207.616 289.499 208.469L289.71 208.016C291.595 208.892 293.492 209.651 295.395 210.287L295.237 210.761C297.224 211.425 299.219 211.956 301.214 212.349L301.311 211.859C303.339 212.258 305.365 212.512 307.383 212.615L307.357 213.115C309.433 213.221 311.501 213.168 313.551 212.951L313.498 212.454C315.523 212.24 317.53 211.862 319.51 211.315L319.643 211.797C320.635 211.523 321.621 211.207 322.599 210.848C323.588 210.485 324.557 210.083 325.505 209.643L325.295 209.19C327.177 208.316 328.976 207.292 330.689 206.127L330.97 206.541C332.692 205.37 334.328 204.06 335.875 202.621L335.534 202.255C337.03 200.863 338.443 199.349 339.77 197.722L340.157 198.038C341.458 196.443 342.675 194.743 343.808 192.945L343.385 192.679C344.469 190.958 345.476 189.148 346.402 187.255L346.852 187.475C347.15 186.865 347.44 186.247 347.722 185.621C348.596 186.753 349.479 187.85 350.368 188.911L350.751 188.59C352.131 190.236 353.528 191.795 354.936 193.263L354.576 193.609C356.078 195.175 357.594 196.637 359.118 197.991L359.45 197.617C361.07 199.055 362.699 200.369 364.329 201.551L364.036 201.956C365.815 203.246 367.598 204.382 369.376 205.354L369.616 204.915C371.537 205.965 373.449 206.821 375.342 207.47L375.179 207.943C377.276 208.662 379.354 209.133 381.398 209.338L381.448 208.841C383.579 209.055 385.665 208.973 387.689 208.577L387.785 209.068C388.834 208.863 389.867 208.576 390.881 208.204C391.903 207.829 392.888 207.374 393.834 206.844L393.59 206.408C394.707 205.782 395.771 205.048 396.78 204.212C397.816 205.408 398.862 206.575 399.917 207.713L400.284 207.373C401.642 208.837 403.016 210.254 404.403 211.62L404.052 211.976C405.484 213.386 406.93 214.744 408.389 216.047L408.722 215.674C410.215 217.008 411.72 218.284 413.237 219.501L412.924 219.891C414.492 221.149 416.072 222.344 417.661 223.475L417.951 223.067C419.583 224.228 421.226 225.321 422.875 226.343L422.612 226.768C424.329 227.831 426.053 228.818 427.784 229.726L428.016 229.284C429.79 230.215 431.568 231.062 433.349 231.824L433.152 232.284C435.011 233.079 436.873 233.782 438.735 234.388L438.89 233.913C440.793 234.533 442.695 235.052 444.591 235.467L444.485 235.956C446.456 236.387 448.423 236.706 450.381 236.911L450.432 236.413C452.411 236.62 454.38 236.707 456.335 236.672L456.344 237.172C458.346 237.136 460.334 236.972 462.303 236.677L462.229 236.182C464.174 235.891 466.1 235.469 468.002 234.914L468.142 235.394C469.097 235.116 470.045 234.804 470.987 234.458C471.94 234.109 472.878 233.728 473.799 233.316L473.595 232.86C475.423 232.044 477.187 231.107 478.887 230.054L479.15 230.479C480.86 229.42 482.505 228.246 484.084 226.964L483.769 226.576C485.303 225.329 486.774 223.979 488.182 222.53L488.54 222.878C489.928 221.45 491.253 219.928 492.514 218.317L492.121 218.008C493.333 216.461 494.487 214.83 495.581 213.121L496.002 213.39C497.072 211.72 498.084 209.977 499.039 208.164L498.597 207.931C499.512 206.195 500.374 204.394 501.183 202.533L501.642 202.732C502.431 200.916 503.169 199.044 503.855 197.119L503.384 196.951C504.045 195.097 504.658 193.193 505.222 191.242L505.702 191.381C506.251 189.482 506.755 187.54 507.211 185.557L506.724 185.445C507.166 183.524 507.565 181.564 507.919 179.569L508.411 179.657C508.758 177.704 509.062 175.718 509.323 173.701L508.827 173.637C509.081 171.677 509.294 169.687 509.466 167.669L509.964 167.712C510.132 165.738 510.261 163.738 510.35 161.714L509.851 161.692C509.938 159.717 509.987 157.72 509.998 155.701L510.498 155.704C510.508 153.719 510.482 151.714 510.418 149.692L509.919 149.707C509.856 147.728 509.758 145.731 509.624 143.719L510.123 143.686C509.99 141.703 509.823 139.705 509.62 137.694L509.122 137.744C508.923 135.771 508.69 133.785 508.422 131.789L508.918 131.722C508.653 129.751 508.355 127.768 508.023 125.777L507.53 125.859C507.204 123.901 506.845 121.935 506.453 119.96L506.943 119.863C506.555 117.91 506.135 115.951 505.682 113.985L505.195 114.098C504.749 112.162 504.271 110.221 503.761 108.275L504.245 108.149C503.74 106.222 503.204 104.291 502.636 102.357L502.157 102.498C501.597 100.591 501.006 98.6814 500.384 96.7702L500.859 96.6155C500.549 95.6627 500.232 94.7095 499.906 93.7561C499.585 92.8147 499.258 91.8783 498.925 90.9471L498.454 91.1153C497.786 89.2466 497.096 87.3988 496.384 85.5727L496.849 85.391C496.126 83.5372 495.381 81.7056 494.614 79.8972L494.154 80.0924C493.379 78.2642 492.581 76.4598 491.763 74.68L492.218 74.4712C491.386 72.6616 490.533 70.8773 489.659 69.1192L489.212 69.3417C488.327 67.562 487.422 65.8092 486.497 64.0843L486.937 63.848C485.995 62.0911 485.032 60.3631 484.05 58.6649L483.617 58.9152C482.621 57.1932 481.605 55.502 480.57 53.8427L480.994 53.5781C479.938 51.8843 478.862 50.2235 477.768 48.597L477.353 48.876C476.242 47.2234 475.112 45.6063 473.964 44.0258L474.369 43.7321C473.195 42.1147 472.002 40.5354 470.793 38.9956L470.4 39.3044C469.169 37.7367 467.92 36.21 466.656 34.7259L467.037 34.4017C465.739 32.8784 464.425 31.3996 463.096 29.9666L462.73 30.3066C461.372 28.8421 459.998 27.4258 458.611 26.0594L458.962 25.7031C457.53 24.2931 456.084 22.9355 454.625 21.6323L454.292 22.0052C452.799 20.6718 451.293 19.3957 449.777 18.1787L450.09 17.7887C448.522 16.5309 446.942 15.3356 445.353 14.2049L445.063 14.6124C443.43 13.451 441.788 12.3585 440.138 11.3368L440.402 10.9118C438.685 9.84874 436.96 8.86172 435.23 7.95323L434.997 8.39593C433.224 7.4649 431.445 6.61718 429.665 5.85539L429.861 5.39569C428.002 4.60049 426.14 3.89793 424.279 3.29114L424.124 3.76653C422.221 3.14625 420.319 2.62712 418.422 2.21234L418.529 1.72388C416.558 1.2928 414.591 0.973238 412.633 0.768951L412.581 1.26625C410.602 1.05978 408.633 0.972328 406.679 1.00762L406.67 0.507704C404.668 0.54386 402.68 0.707474 400.711 1.00262L400.785 1.49709C398.84 1.7887 396.914 2.21008 395.012 2.76512L394.872 2.28515C393.917 2.56377 392.968 2.87568 392.026 3.22134C391.073 3.57096 390.136 3.95181 389.215 4.3631L389.419 4.81966C387.591 5.63567 385.827 6.57292 384.127 7.62526L383.864 7.20014C382.154 8.25913 380.508 9.43305 378.93 10.7156L379.245 11.1036C377.711 12.3501 376.239 13.7006 374.832 15.1495L374.474 14.8011C373.086 16.2295 371.761 17.752 370.499 19.3628L370.893 19.6711C369.681 21.219 368.527 22.8499 367.433 24.559L367.012 24.2893C365.942 25.9593 364.929 27.7028 363.974 29.5151L364.417 29.7482C363.502 31.4846 362.639 33.2853 361.831 35.1464L361.372 34.9471C360.583 36.7631 359.845 38.6356 359.159 40.5609L359.63 40.7287C358.969 42.5828 358.356 44.4867 357.792 46.437L357.312 46.2981C356.915 47.6683 356.543 49.061 356.195 50.4753C354.668 49.7021 353.147 49.0541 351.64 48.5372L351.802 48.0642C349.705 47.3452 347.627 46.874 345.583 46.6687L345.533 47.1662C343.403 46.9521 341.316 47.0338 339.292 47.4295L339.196 46.9388C338.147 47.1438 337.115 47.4312 336.101 47.8031C335.078 48.1782 334.094 48.6326 333.147 49.1625L333.392 49.5988C331.581 50.6128 329.911 51.911 328.387 53.4674L328.03 53.1175C326.58 54.5982 325.262 56.3041 324.078 58.2115L324.503 58.4752C323.435 60.1954 322.474 62.086 321.623 64.1309L321.161 63.9387C320.766 64.8881 320.395 65.8697 320.047 66.882C318.74 65.6212 317.411 64.4186 316.065 63.2766L316.389 62.8953C314.794 61.5429 313.174 60.2743 311.534 59.0934L311.241 59.4992C309.554 58.2849 307.845 57.1643 306.12 56.1416L306.375 55.7115C304.573 54.6429 302.752 53.6797 300.918 52.8269L300.708 53.2802C298.823 52.4035 296.925 51.6447 295.023 51.009L295.181 50.5348C293.194 49.8709 291.199 49.3395 289.204 48.9467L289.107 49.4373C287.079 49.0379 285.052 48.7837 283.035 48.6807L283.061 48.1813C280.984 48.0753 278.917 48.1275 276.867 48.3446L276.919 48.8418C274.895 49.0563 272.888 49.4338 270.908 49.9808L270.775 49.4988C269.782 49.7729 268.797 50.0889 267.819 50.4477C266.829 50.8107 265.86 51.2129 264.912 51.6529L265.123 52.1064C263.241 52.9798 261.442 54.004 259.729 55.1685L259.448 54.755C257.725 55.9258 256.09 57.236 254.543 58.6746L254.884 59.0407C253.387 60.4326 251.975 61.9469 250.648 63.5737L250.26 63.2577C248.96 64.8525 247.742 66.5533 246.609 68.3508L247.032 68.6174Z" stroke="white" stroke-dasharray="6 6"/>
</svg>
