<svg width="90" height="27" viewBox="0 0 90 27" fill="none" xmlns="http://www.w3.org/2000/svg">
<rect width="90" height="27" fill="white"/>
<path d="M15.1124 17.14L15.8324 16.96V9.28001L15.1124 9.10001V8.92001H16.6724C17.3924 8.92001 17.7524 9.28001 17.7524 10V16.96L18.4724 17.14V17.32H15.1124V17.14ZM22.3705 17.5C21.3785 17.5 20.5985 17.22 20.0305 16.66C19.4705 16.092 19.1905 15.312 19.1905 14.32C19.1905 13.328 19.4705 12.552 20.0305 11.992C20.5985 11.424 21.3785 11.14 22.3705 11.14C23.3625 11.14 24.1385 11.424 24.6985 11.992C25.2665 12.552 25.5505 13.328 25.5505 14.32C25.5505 15.312 25.2665 16.092 24.6985 16.66C24.1385 17.22 23.3625 17.5 22.3705 17.5ZM22.3705 17.26C22.6905 17.26 22.9585 17.036 23.1745 16.588C23.3985 16.14 23.5105 15.384 23.5105 14.32C23.5105 13.256 23.3985 12.5 23.1745 12.052C22.9585 11.604 22.6905 11.38 22.3705 11.38C22.0505 11.38 21.7785 11.604 21.5545 12.052C21.3385 12.5 21.2305 13.256 21.2305 14.32C21.2305 15.384 21.3385 16.14 21.5545 16.588C21.7785 17.036 22.0505 17.26 22.3705 17.26ZM29.3347 19.9C28.6227 19.9 28.0427 19.836 27.5947 19.708C27.1467 19.58 26.8227 19.416 26.6227 19.216C26.4307 19.016 26.3347 18.804 26.3347 18.58C26.3347 18.308 26.4147 18.088 26.5747 17.92C26.7427 17.76 26.9627 17.68 27.2347 17.68C27.2987 17.68 27.4147 17.692 27.5827 17.716L27.7147 17.74V19.42C27.8107 19.452 27.9627 19.492 28.1707 19.54C28.5387 19.62 28.8867 19.66 29.2147 19.66C30.1907 19.66 30.9027 19.52 31.3507 19.24C31.8067 18.968 32.0347 18.628 32.0347 18.22C32.0347 17.7 31.5547 17.44 30.5947 17.44H28.3147C27.7147 17.44 27.2547 17.316 26.9347 17.068C26.6147 16.82 26.4547 16.504 26.4547 16.12C26.4547 15.736 26.6427 15.396 27.0187 15.1C27.1707 14.988 27.3627 14.888 27.5947 14.8C27.2987 14.616 27.0827 14.4 26.9467 14.152C26.8187 13.896 26.7547 13.592 26.7547 13.24C26.7547 12.648 26.9787 12.172 27.4267 11.812C27.8747 11.444 28.5307 11.26 29.3947 11.26C29.7707 11.26 30.1147 11.3 30.4267 11.38C30.7467 11.452 31.0027 11.552 31.1947 11.68C31.2587 11.544 31.3427 11.424 31.4467 11.32C31.6867 11.08 31.9827 10.96 32.3347 10.96C32.6067 10.96 32.8347 11.056 33.0187 11.248C33.2027 11.432 33.2947 11.676 33.2947 11.98C33.2947 12.212 33.2307 12.4 33.1027 12.544C32.9827 12.688 32.8267 12.76 32.6347 12.76C32.5467 12.76 32.4467 12.752 32.3347 12.736L32.2147 12.7V11.26C32.0067 11.26 31.8107 11.36 31.6267 11.56C31.5547 11.632 31.4907 11.732 31.4347 11.86C31.8347 12.212 32.0347 12.672 32.0347 13.24C32.0347 13.832 31.8107 14.312 31.3627 14.68C30.9147 15.04 30.2587 15.22 29.3947 15.22C28.8187 15.22 28.2987 15.12 27.8347 14.92L27.5947 15.04C27.5147 15.088 27.4547 15.136 27.4147 15.184C27.3747 15.224 27.3547 15.276 27.3547 15.34C27.3547 15.476 27.4227 15.58 27.5587 15.652C27.7027 15.724 27.9547 15.76 28.3147 15.76H30.5947C31.1947 15.76 31.6627 15.936 31.9987 16.288C32.3427 16.632 32.5147 17.116 32.5147 17.74C32.5147 18.38 32.2467 18.9 31.7107 19.3C31.1827 19.7 30.3907 19.9 29.3347 19.9ZM29.3947 14.98C29.6587 14.98 29.8627 14.852 30.0067 14.596C30.1587 14.34 30.2347 13.888 30.2347 13.24C30.2347 12.592 30.1587 12.14 30.0067 11.884C29.8627 11.628 29.6587 11.5 29.3947 11.5C29.1307 11.5 28.9227 11.628 28.7707 11.884C28.6267 12.14 28.5547 12.592 28.5547 13.24C28.5547 13.888 28.6267 14.34 28.7707 14.596C28.9227 14.852 29.1307 14.98 29.3947 14.98ZM36.726 17.5C35.734 17.5 34.954 17.22 34.386 16.66C33.826 16.092 33.546 15.312 33.546 14.32C33.546 13.328 33.826 12.552 34.386 11.992C34.954 11.424 35.734 11.14 36.726 11.14C37.718 11.14 38.494 11.424 39.054 11.992C39.622 12.552 39.906 13.328 39.906 14.32C39.906 15.312 39.622 16.092 39.054 16.66C38.494 17.22 37.718 17.5 36.726 17.5ZM36.726 17.26C37.046 17.26 37.314 17.036 37.53 16.588C37.754 16.14 37.866 15.384 37.866 14.32C37.866 13.256 37.754 12.5 37.53 12.052C37.314 11.604 37.046 11.38 36.726 11.38C36.406 11.38 36.134 11.604 35.91 12.052C35.694 12.5 35.586 13.256 35.586 14.32C35.586 15.384 35.694 16.14 35.91 16.588C36.134 17.036 36.406 17.26 36.726 17.26ZM44.1135 19.54L44.8335 19.36V11.68L44.1135 11.5V11.32H45.1935C45.6655 11.32 46.0375 11.472 46.3095 11.776C46.4135 11.896 46.5015 12.044 46.5735 12.22C46.6775 12.012 46.8095 11.832 46.9695 11.68C47.3295 11.32 47.7775 11.14 48.3135 11.14C48.7855 11.14 49.2055 11.264 49.5735 11.512C49.9415 11.752 50.2335 12.112 50.4495 12.592C50.6655 13.064 50.7735 13.64 50.7735 14.32C50.7735 15.344 50.5335 16.132 50.0535 16.684C49.5815 17.228 48.9415 17.5 48.1335 17.5C47.7495 17.5 47.4135 17.42 47.1255 17.26C47.0055 17.204 46.8815 17.124 46.7535 17.02V19.36L47.4735 19.54V19.72H44.1135V19.54ZM47.6535 17.14C47.9975 17.14 48.2615 16.94 48.4455 16.54C48.6375 16.14 48.7335 15.4 48.7335 14.32C48.7335 13.288 48.6455 12.572 48.4695 12.172C48.3015 11.764 48.0895 11.56 47.8335 11.56C47.5295 11.56 47.2575 11.72 47.0175 12.04C46.9135 12.176 46.8255 12.336 46.7535 12.52V16.66C46.8655 16.772 46.9535 16.852 47.0175 16.9C47.2335 17.06 47.4455 17.14 47.6535 17.14ZM51.7335 17.14L52.4535 16.96V9.28001L51.7335 9.10001V8.92001H53.2935C54.0135 8.92001 54.3735 9.28001 54.3735 10V16.96L55.0935 17.14V17.32H51.7335V17.14ZM58.1516 17.5C57.4396 17.5 56.8916 17.348 56.5076 17.044C56.1236 16.74 55.9316 16.352 55.9316 15.88C55.9316 15.568 55.9996 15.26 56.1356 14.956C56.1916 14.812 56.2636 14.68 56.3516 14.56C56.6796 14.48 57.0356 14.408 57.4196 14.344C58.2836 14.2 59.0476 14.112 59.7116 14.08V13.72C59.7116 12.832 59.6036 12.22 59.3876 11.884C59.1716 11.548 58.8396 11.38 58.3916 11.38C58.2236 11.38 58.0796 11.4 57.9596 11.44L57.7916 11.5V13.3L57.6356 13.336C57.5076 13.352 57.3996 13.36 57.3116 13.36C57.0396 13.36 56.8196 13.28 56.6516 13.12C56.4916 12.952 56.4116 12.732 56.4116 12.46C56.4116 12.092 56.5956 11.78 56.9636 11.524C57.3396 11.268 57.8956 11.14 58.6316 11.14C59.2556 11.14 59.7916 11.252 60.2396 11.476C60.6956 11.692 61.0396 11.996 61.2716 12.388C61.5116 12.772 61.6316 13.216 61.6316 13.72V16.96L62.3516 17.14V17.32H61.2716C60.7916 17.32 60.4196 17.172 60.1556 16.876C60.0436 16.756 59.9556 16.604 59.8916 16.42C59.7796 16.62 59.6476 16.8 59.4956 16.96C59.1356 17.32 58.6876 17.5 58.1516 17.5ZM58.6316 17.08C58.9276 17.08 59.1956 16.92 59.4356 16.6C59.5236 16.48 59.6156 16.32 59.7116 16.12V14.38C59.3436 14.38 58.9916 14.4 58.6556 14.44C58.4076 14.472 58.2396 14.492 58.1516 14.5C58.1116 14.588 58.0716 14.708 58.0316 14.86C57.9516 15.164 57.9116 15.464 57.9116 15.76C57.9116 16.208 57.9796 16.54 58.1156 16.756C58.2516 16.972 58.4236 17.08 58.6316 17.08ZM66.3172 17.5C65.2932 17.5 64.4972 17.22 63.9292 16.66C63.3612 16.092 63.0772 15.312 63.0772 14.32C63.0772 13.328 63.3612 12.552 63.9292 11.992C64.4972 11.424 65.2932 11.14 66.3172 11.14C67.0532 11.14 67.6052 11.268 67.9732 11.524C68.3492 11.78 68.5372 12.092 68.5372 12.46C68.5372 12.732 68.4532 12.952 68.2852 13.12C68.1252 13.28 67.9092 13.36 67.6372 13.36C67.5252 13.36 67.4132 13.352 67.3012 13.336L67.1572 13.3V11.5L66.9892 11.44C66.8692 11.4 66.7252 11.38 66.5572 11.38C66.1012 11.38 65.7452 11.596 65.4892 12.028C65.2412 12.46 65.1172 13.224 65.1172 14.32C65.1172 15.384 65.2412 16.132 65.4892 16.564C65.7452 16.988 66.1012 17.2 66.5572 17.2C66.8692 17.2 67.1572 17.128 67.4212 16.984C67.6932 16.832 67.9052 16.636 68.0572 16.396C68.2172 16.148 68.2972 15.896 68.2972 15.64H68.5972C68.5972 15.96 68.5012 16.264 68.3092 16.552C68.1172 16.84 67.8492 17.072 67.5052 17.248C67.1612 17.416 66.7652 17.5 66.3172 17.5ZM72.6805 17.5C71.6565 17.5 70.8605 17.22 70.2925 16.66C69.7245 16.092 69.4405 15.312 69.4405 14.32C69.4405 13.672 69.5645 13.108 69.8125 12.628C70.0605 12.148 70.4045 11.78 70.8445 11.524C71.2925 11.268 71.8045 11.14 72.3805 11.14C72.9565 11.14 73.4605 11.248 73.8925 11.464C74.3325 11.68 74.6685 11.972 74.9005 12.34C75.1405 12.7 75.2605 13.1 75.2605 13.54C75.2605 13.74 75.2405 13.912 75.2005 14.056L75.1405 14.26C74.7965 14.332 74.4245 14.392 74.0245 14.44C73.1845 14.56 72.3365 14.62 71.4805 14.62C71.4805 15.548 71.6085 16.212 71.8645 16.612C72.1205 17.004 72.4725 17.2 72.9205 17.2C73.2325 17.2 73.5205 17.128 73.7845 16.984C74.0565 16.832 74.2685 16.636 74.4205 16.396C74.5805 16.148 74.6605 15.896 74.6605 15.64H74.9605C74.9605 15.96 74.8645 16.264 74.6725 16.552C74.4805 16.84 74.2125 17.072 73.8685 17.248C73.5245 17.416 73.1285 17.5 72.6805 17.5ZM71.4805 14.32C71.9925 14.32 72.4085 14.3 72.7285 14.26C72.8645 14.252 73.0085 14.232 73.1605 14.2C73.1685 14.16 73.1885 14.072 73.2205 13.936C73.2605 13.736 73.2805 13.524 73.2805 13.3C73.2805 12.636 73.1925 12.152 73.0165 11.848C72.8405 11.536 72.6285 11.38 72.3805 11.38C71.7805 11.38 71.4805 12.36 71.4805 14.32Z" fill="#793FB4"/>
</svg>
