<svg width="17" height="16" viewBox="0 0 17 16" fill="none" xmlns="http://www.w3.org/2000/svg">
<path d="M1.87606 13.2264C3.60549 13.2403 6.96173 12.3097 6.97266 12.3225C7.94419 13.3349 8.97032 14.2949 10.0695 15.1762C10.4539 15.4839 11.1733 15.3065 11.2323 14.7566C11.3837 13.3322 11.5247 11.905 11.6596 10.4795C13.1361 9.85632 14.5985 9.19954 16.0446 8.5053C16.5481 8.2632 16.7333 7.43911 16.1137 7.20469C14.7762 6.69714 13.4297 6.21385 12.0736 5.75692C12.1879 4.34167 12.2981 2.92535 12.3946 1.50994C12.4063 1.34344 12.3665 1.19798 12.2947 1.07969C12.2437 0.581227 11.5044 0.188446 11.0109 0.671348C9.79722 1.86 8.61373 3.07639 7.45605 4.31608C6.28109 3.97687 5.10038 3.65833 3.91395 3.36047C3.05632 3.1454 1.50951 2.46519 0.808939 3.38541C0.107795 4.30768 1.42613 5.51051 1.92036 6.17676C2.5072 6.96666 3.09859 7.7522 3.70645 8.52649C2.39375 10.0762 2.30959 10.1509 1.0804 11.7687C0.561278 12.4522 1.02683 13.2218 1.87416 13.2293L1.87606 13.2264Z" fill="#E3BFFF"/>
</svg>
