<svg width="19" height="18" viewBox="0 0 19 18" fill="none" xmlns="http://www.w3.org/2000/svg">
<path d="M5.11429 17.2534C6.96479 16.8799 10.2146 15.0994 10.2309 15.111C11.6285 16.0086 13.0658 16.8362 14.5529 17.5607C15.0728 17.8135 15.7773 17.4561 15.6442 16.8367C15.298 15.2323 14.9396 13.6273 14.5755 12.0255C15.9289 11.0065 17.2554 9.95363 18.5511 8.86316C19.0021 8.48305 18.906 7.53291 18.1612 7.41379C16.5529 7.15498 14.9437 6.92495 13.3337 6.7261C12.9511 5.1402 12.5638 3.55406 12.1622 1.97198C12.1153 1.7858 12.021 1.63439 11.9022 1.52014C11.6701 0.982073 10.7411 0.715287 10.3866 1.35861C9.51522 2.94188 8.6859 4.54895 7.89244 6.17589C6.51766 6.06611 5.14412 5.98042 3.77184 5.9188C2.77995 5.87453 0.886802 5.47244 0.467244 6.64441C0.0478117 7.81879 1.88346 8.8484 2.6484 9.47176C3.55623 10.2106 4.46737 10.9437 5.39208 11.6606C4.54371 13.6642 4.48051 13.7654 3.74555 15.8253C3.43523 16.6955 4.20641 17.4393 5.11328 17.257L5.11429 17.2534Z" fill="#793FB4"/>
</svg>
