<svg width="14" height="14" viewBox="0 0 14 14" fill="none" xmlns="http://www.w3.org/2000/svg">
<path d="M9.66667 6.99998C9.66667 8.47274 8.47276 9.66665 7 9.66665C5.52724 9.66665 4.33333 8.47274 4.33333 6.99998C4.33333 5.52722 5.52724 4.33331 7 4.33331C8.47276 4.33331 9.66667 5.52722 9.66667 6.99998Z" fill="#793FB4"/>
<path fill-rule="evenodd" clip-rule="evenodd" d="M7 7.66665C7.36819 7.66665 7.66667 7.36817 7.66667 6.99998C7.66667 6.63179 7.36819 6.33331 7 6.33331C6.63181 6.33331 6.33333 6.63179 6.33333 6.99998C6.33333 7.36817 6.63181 7.66665 7 7.66665ZM7 9.66665C8.47276 9.66665 9.66667 8.47274 9.66667 6.99998C9.66667 5.52722 8.47276 4.33331 7 4.33331C5.52724 4.33331 4.33333 5.52722 4.33333 6.99998C4.33333 8.47274 5.52724 9.66665 7 9.66665Z" fill="#793FB4"/>
<path fill-rule="evenodd" clip-rule="evenodd" d="M7.00002 0C7.5523 0 8.00002 0.447715 8.00002 1V2.33333C8.00002 2.88562 7.5523 3.33333 7.00002 3.33333C6.44774 3.33333 6.00002 2.88562 6.00002 2.33333V1C6.00002 0.447715 6.44774 0 7.00002 0Z" fill="#793FB4"/>
<path fill-rule="evenodd" clip-rule="evenodd" d="M7.00002 10.6667C7.5523 10.6667 8.00002 11.1144 8.00002 11.6667V13C8.00002 13.5523 7.5523 14 7.00002 14C6.44774 14 6.00002 13.5523 6.00002 13V11.6667C6.00002 11.1144 6.44774 10.6667 7.00002 10.6667Z" fill="#793FB4"/>
<path fill-rule="evenodd" clip-rule="evenodd" d="M11.9498 2.05003C12.3403 2.44056 12.3403 3.07372 11.9498 3.46425L11.007 4.40706C10.6165 4.79758 9.9833 4.79758 9.59278 4.40706C9.20226 4.01653 9.20226 3.38337 9.59278 2.99284L10.5356 2.05003C10.9261 1.65951 11.5593 1.65951 11.9498 2.05003Z" fill="#793FB4"/>
<path fill-rule="evenodd" clip-rule="evenodd" d="M4.40732 9.593C4.79785 9.98353 4.79785 10.6167 4.40732 11.0072L3.46451 11.95C3.07399 12.3405 2.44082 12.3405 2.0503 11.95C1.65978 11.5595 1.65978 10.9263 2.0503 10.5358L2.99311 9.593C3.38363 9.20248 4.0168 9.20248 4.40732 9.593Z" fill="#793FB4"/>
<path fill-rule="evenodd" clip-rule="evenodd" d="M14 7C14 7.55228 13.5523 8 13 8H11.6667C11.1144 8 10.6667 7.55228 10.6667 7C10.6667 6.44772 11.1144 6 11.6667 6H13C13.5523 6 14 6.44772 14 7Z" fill="#793FB4"/>
<path fill-rule="evenodd" clip-rule="evenodd" d="M3.33333 7C3.33333 7.55228 2.88562 8 2.33333 8H1C0.447715 8 -1.60941e-08 7.55228 0 7C1.60941e-08 6.44772 0.447715 6 1 6H2.33333C2.88562 6 3.33333 6.44772 3.33333 7Z" fill="#793FB4"/>
<path fill-rule="evenodd" clip-rule="evenodd" d="M11.9498 11.95C11.5593 12.3405 10.9261 12.3405 10.5356 11.95L9.59278 11.0072C9.20226 10.6166 9.20226 9.98347 9.59278 9.59294C9.9833 9.20242 10.6165 9.20242 11.007 9.59294L11.9498 10.5358C12.3403 10.9263 12.3403 11.5594 11.9498 11.95Z" fill="#793FB4"/>
<path fill-rule="evenodd" clip-rule="evenodd" d="M4.40732 4.407C4.0168 4.79752 3.38363 4.79752 2.99311 4.407L2.0503 3.46419C1.65978 3.07366 1.65978 2.4405 2.0503 2.04997C2.44082 1.65945 3.07399 1.65945 3.46451 2.04997L4.40732 2.99278C4.79785 3.38331 4.79785 4.01647 4.40732 4.407Z" fill="#793FB4"/>
</svg>
