<svg width="437" height="208" viewBox="0 0 437 208" fill="none" xmlns="http://www.w3.org/2000/svg">
<g filter="url(#filter0_d_15_173)">
<path d="M111.917 212.875C113.563 211.974 115.197 210.981 116.815 209.899L117.093 210.315C118.665 209.264 120.222 208.131 121.759 206.919L121.449 206.526C121.959 206.124 122.467 205.713 122.972 205.294C123.052 205.48 123.133 205.666 123.215 205.852L123.673 205.651C124.474 207.477 125.332 209.265 126.247 211.01L125.804 211.242C126.735 213.019 127.724 214.752 128.769 216.437L129.193 216.174C130.244 217.868 131.351 219.513 132.513 221.105L132.11 221.4C133.292 223.019 134.532 224.584 135.827 226.091L136.206 225.765C137.503 227.274 138.856 228.723 140.263 230.108L139.912 230.464C141.339 231.869 142.821 233.208 144.357 234.478L144.676 234.093C146.205 235.357 147.787 236.552 149.422 237.672L149.139 238.084C150.785 239.212 152.482 240.265 154.231 241.239L154.474 240.803C156.199 241.764 157.974 242.647 159.797 243.448L159.596 243.906C160.508 244.307 161.433 244.688 162.369 245.048C163.279 245.397 164.191 245.723 165.106 246.027L165.263 245.552C167.101 246.163 168.948 246.68 170.803 247.108L170.69 247.595C172.587 248.033 174.491 248.377 176.398 248.63L176.463 248.134C178.373 248.388 180.286 248.549 182.198 248.62L182.179 249.119C184.115 249.191 186.05 249.172 187.979 249.063L187.951 248.564C189.865 248.456 191.775 248.26 193.675 247.978L193.749 248.473C195.657 248.189 197.556 247.82 199.442 247.367L199.325 246.881C201.183 246.435 203.028 245.907 204.857 245.3L205.015 245.774C206.839 245.168 208.648 244.483 210.435 243.723L210.24 243.263C211.415 242.763 212.581 242.229 213.737 241.664C214.413 243.527 215.144 245.357 215.931 247.149L216.388 246.949C217.19 248.775 218.048 250.562 218.963 252.308L218.52 252.54C219.451 254.316 220.439 256.05 221.484 257.735L221.909 257.472C222.96 259.166 224.067 260.811 225.229 262.403L224.825 262.698C226.008 264.317 227.248 265.882 228.543 267.389L228.922 267.063C230.219 268.571 231.572 270.021 232.979 271.406L232.628 271.762C234.055 273.167 235.537 274.506 237.073 275.776L237.392 275.391C238.921 276.655 240.503 277.849 242.138 278.97L241.855 279.382C243.5 280.51 245.198 281.563 246.947 282.537L247.19 282.1C248.915 283.062 250.69 283.945 252.513 284.746L252.312 285.204C253.224 285.605 254.149 285.986 255.085 286.345C255.994 286.695 256.907 287.021 257.821 287.325L257.979 286.85C259.817 287.46 261.664 287.978 263.518 288.406L263.406 288.893C265.303 289.331 267.207 289.675 269.114 289.928L269.179 289.432C271.089 289.685 273.002 289.846 274.913 289.918L274.895 290.417C276.831 290.489 278.766 290.47 280.695 290.361L280.667 289.862C282.581 289.754 284.491 289.558 286.391 289.276L286.464 289.771C288.373 289.487 290.272 289.118 292.157 288.665L292.041 288.179C293.899 287.733 295.744 287.205 297.573 286.597L297.73 287.072C299.555 286.466 301.363 285.781 303.151 285.02L302.956 284.56C304.71 283.814 306.446 282.993 308.158 282.1L308.389 282.544C310.091 281.657 311.769 280.7 313.421 279.675L313.158 279.25C313.419 279.088 313.68 278.924 313.94 278.758C314.054 280.043 314.193 281.318 314.358 282.581L313.862 282.645C314.13 284.693 314.464 286.711 314.863 288.692L315.353 288.593C315.759 290.607 316.232 292.583 316.771 294.516L316.289 294.65C316.845 296.642 317.47 298.589 318.163 300.485L318.632 300.313C319.338 302.244 320.115 304.121 320.96 305.938L320.506 306.149C321.381 308.028 322.328 309.844 323.347 311.589L323.779 311.337C324.815 313.113 325.926 314.816 327.108 316.437L326.704 316.732C327.924 318.405 329.221 319.994 330.592 321.49L330.961 321.152C332.345 322.662 333.804 324.075 335.337 325.384L335.012 325.764C336.58 327.102 338.224 328.333 339.941 329.446L340.214 329.027C341.916 330.131 343.691 331.118 345.537 331.98L345.325 332.433C346.253 332.867 347.198 333.269 348.16 333.638C349.096 333.998 350.036 334.322 350.982 334.613L351.128 334.135C353.027 334.718 354.944 335.161 356.872 335.469L356.794 335.962C358.766 336.277 360.749 336.452 362.736 336.491L362.746 335.991C364.707 336.03 366.673 335.936 368.636 335.714L368.692 336.211C370.653 335.989 372.611 335.64 374.559 335.169L374.442 334.683C376.334 334.226 378.217 333.653 380.085 332.968L380.257 333.438C382.098 332.762 383.924 331.98 385.728 331.094L385.508 330.645C387.249 329.79 388.972 328.838 390.669 327.792L390.931 328.218C392.595 327.193 394.235 326.079 395.845 324.881L395.547 324.48C397.103 323.321 398.632 322.082 400.129 320.766L400.459 321.142C401.927 319.852 403.364 318.488 404.767 317.054L404.409 316.704C405.768 315.315 407.093 313.859 408.383 312.339L408.764 312.663C410.027 311.173 411.255 309.624 412.445 308.015L412.043 307.718C413.199 306.154 414.319 304.535 415.398 302.862L415.818 303.133C416.878 301.491 417.9 299.798 418.88 298.056L418.444 297.811C419.398 296.115 420.312 294.373 421.184 292.586L421.633 292.805C422.491 291.047 423.307 289.246 424.08 287.404L423.619 287.211C424.372 285.415 425.083 283.581 425.749 281.71L426.22 281.878C426.551 280.95 426.87 280.013 427.179 279.067C427.496 278.093 427.799 277.117 428.088 276.142L427.608 276C428.188 274.038 428.709 272.074 429.172 270.113L429.658 270.228C430.13 268.227 430.542 266.228 430.894 264.235L430.402 264.148C430.758 262.132 431.054 260.121 431.29 258.121L431.786 258.179C432.027 256.137 432.206 254.105 432.325 252.087L431.826 252.057C431.946 250.01 432.004 247.978 432 245.964L432.5 245.964C432.496 243.904 432.428 241.863 432.298 239.846L431.799 239.878C431.667 237.832 431.47 235.81 431.21 233.818L431.705 233.753C431.438 231.705 431.104 229.688 430.705 227.707L430.215 227.806C429.809 225.792 429.336 223.815 428.797 221.882L429.279 221.748C428.723 219.756 428.098 217.81 427.405 215.914L426.936 216.086C426.23 214.155 425.453 212.278 424.608 210.461L425.061 210.25C424.187 208.371 423.24 206.555 422.221 204.809L421.789 205.061C420.753 203.285 419.642 201.583 418.46 199.962L418.864 199.667C417.643 197.993 416.347 196.405 414.976 194.909L414.607 195.247C413.223 193.737 411.763 192.324 410.231 191.015L410.556 190.635C408.988 189.296 407.344 188.066 405.626 186.952L405.354 187.372C403.652 186.268 401.876 185.28 400.031 184.418L400.243 183.965C399.315 183.532 398.37 183.13 397.408 182.76C396.472 182.401 395.531 182.076 394.586 181.786L394.439 182.264C392.54 181.681 390.624 181.238 388.696 180.93L388.774 180.436C386.802 180.122 384.819 179.947 382.832 179.907L382.822 180.407C380.861 180.368 378.895 180.462 376.932 180.685L376.876 180.188C374.915 180.41 372.957 180.759 371.009 181.229L371.126 181.715C369.234 182.172 367.351 182.745 365.483 183.43L365.311 182.961C363.47 183.636 361.644 184.419 359.84 185.305L360.06 185.753C359.145 186.202 358.236 186.678 357.333 187.18C357.251 185.917 357.146 184.659 357.019 183.408L357.516 183.357C357.313 181.363 357.053 179.386 356.736 177.43L356.243 177.51C355.924 175.542 355.549 173.596 355.117 171.674L355.605 171.565C355.166 169.608 354.669 167.677 354.116 165.774L353.636 165.914C353.08 163.999 352.466 162.113 351.796 160.261L352.266 160.091C351.584 158.205 350.845 156.352 350.049 154.538L349.591 154.739C348.79 152.912 347.931 151.125 347.017 149.38L347.46 149.148C346.529 147.371 345.54 145.638 344.495 143.952L344.07 144.216C343.02 142.522 341.913 140.877 340.75 139.285L341.154 138.99C339.971 137.37 338.732 135.805 337.436 134.299L337.057 134.625C335.76 133.116 334.407 131.667 333 130.281L333.351 129.925C331.924 128.521 330.442 127.181 328.906 125.911L328.588 126.296C327.059 125.032 325.476 123.838 323.842 122.718L324.124 122.305C322.479 121.177 320.781 120.124 319.033 119.15L318.789 119.587C317.064 118.626 315.289 117.742 313.467 116.941L313.668 116.483C312.755 116.082 311.83 115.702 310.894 115.342C309.985 114.993 309.073 114.666 308.158 114.363L308 114.837C306.163 114.227 304.315 113.709 302.461 113.281L302.573 112.794C300.676 112.357 298.772 112.012 296.866 111.759L296.8 112.255C294.89 112.002 292.978 111.841 291.066 111.77L291.085 111.27C289.149 111.198 287.214 111.218 285.284 111.326L285.312 111.825C283.398 111.933 281.489 112.129 279.588 112.411L279.515 111.917C277.607 112.2 275.708 112.569 273.822 113.022L273.939 113.508C272.081 113.955 270.235 114.482 268.407 115.09L268.249 114.615C266.424 115.222 264.616 115.906 262.828 116.667L263.024 117.127C261.849 117.627 260.683 118.16 259.526 118.726C258.851 116.863 258.119 115.033 257.333 113.24L256.875 113.441C256.074 111.615 255.215 109.827 254.301 108.082L254.744 107.85C253.813 106.073 252.824 104.34 251.779 102.654L251.354 102.918C250.304 101.224 249.197 99.5789 248.034 97.9868L248.438 97.692C247.256 96.0725 246.016 94.5073 244.721 93.0007L244.341 93.3267C243.044 91.818 241.691 90.3688 240.284 88.9835L240.635 88.6272C239.209 87.2227 237.726 85.8832 236.19 84.6132L235.872 84.9986C234.343 83.7345 232.76 82.5401 231.126 81.4199L231.409 81.0074C229.763 79.8796 228.065 78.8264 226.317 77.8523L226.073 78.2891C224.348 77.3279 222.573 76.4445 220.751 75.6434L220.952 75.1856C220.039 74.7845 219.115 74.4038 218.178 74.0441C217.269 73.6948 216.357 73.3684 215.442 73.0647L215.284 73.5392C213.447 72.9291 211.599 72.4113 209.745 71.9835L209.857 71.4963C207.96 71.0587 206.056 70.7145 204.15 70.4616L204.084 70.9573C202.174 70.704 200.262 70.543 198.35 70.4719L198.369 69.9722C196.433 69.9003 194.498 69.9198 192.568 70.0284L192.597 70.5276C190.682 70.6353 188.773 70.8314 186.872 71.1135L186.799 70.6189C184.891 70.9022 182.992 71.2715 181.106 71.7243L181.223 72.2105C179.365 72.6567 177.519 73.1846 175.691 73.7921L175.533 73.3176C173.708 73.9237 171.9 74.6083 170.112 75.369L170.308 75.8291C168.553 76.5758 166.818 77.3965 165.105 78.289L164.874 77.8456C163.243 78.6957 161.633 79.6104 160.047 80.5878C159.91 80.1432 159.768 79.7013 159.624 79.2625L159.149 79.4188C158.522 77.5134 157.834 75.6641 157.085 73.8764L157.546 73.6833C156.766 71.8205 155.921 70.0232 155.013 68.2976L154.57 68.5306C153.636 66.7565 152.634 65.0596 151.567 63.4466L151.984 63.1706C150.868 61.4848 149.68 59.8886 148.422 58.3898L148.039 58.7113C146.753 57.1798 145.394 55.752 143.964 54.4361L144.302 54.0681C142.82 52.7048 141.262 51.4594 139.629 50.3409L139.346 50.7534C137.715 49.6367 136.01 48.6488 134.233 47.7988L134.449 47.3477C133.55 46.9179 132.633 46.5228 131.698 46.1636C130.788 45.8139 129.871 45.5023 128.948 45.2281L128.806 45.7074C126.96 45.1588 125.091 44.7622 123.206 44.5122L123.271 44.0165C121.354 43.7623 119.421 43.6578 117.478 43.6974L117.488 44.1973C115.595 44.2359 113.692 44.4132 111.786 44.7239L111.706 44.2304C109.825 44.537 107.943 44.9719 106.065 45.5299L106.207 46.0092C104.407 46.5438 102.61 47.193 100.821 47.9525L100.626 47.4922C98.8838 48.2319 97.1501 49.0747 95.43 50.0167L95.6701 50.4552C94.0242 51.3566 92.3898 52.3498 90.7714 53.4315L90.4935 53.0158C89.478 53.6945 88.469 54.4077 87.4676 55.1543C87.1991 53.9564 86.9152 52.7727 86.6161 51.6038L87.1005 51.4799C86.6043 49.5405 86.0662 47.6414 85.4867 45.7851L85.0094 45.9341C84.4155 44.0316 83.7779 42.1748 83.0975 40.3666L83.5654 40.1904C82.8587 38.3124 82.1055 36.4859 81.3067 34.7144L80.8509 34.9199C80.0284 33.0961 79.1574 31.3313 78.2385 29.6292L78.6785 29.3917C77.7239 27.6233 76.7176 25.9215 75.6603 24.2903L75.2408 24.5622C74.1542 22.8858 73.0138 21.2852 71.8205 19.7648L72.2138 19.4561C70.9716 17.8733 69.6718 16.376 68.3153 14.9691L67.9554 15.3162C66.5751 13.8846 65.1363 12.5482 63.64 11.3124L63.9584 10.9268C62.4149 9.65198 60.8101 8.48241 59.1451 7.424L58.8769 7.84595C57.2151 6.78956 55.4934 5.8455 53.7128 5.01951L53.9232 4.56594C53.0227 4.14822 52.1073 3.76033 51.1771 3.403C50.2005 3.02783 49.2169 2.68992 48.2268 2.38876L48.0813 2.86712C46.1049 2.26587 44.1031 1.81288 42.0808 1.50376L42.1564 1.0095C40.1067 0.696173 38.0368 0.529036 35.952 0.503467L35.9458 1.00343C33.9114 0.978478 31.8618 1.08981 29.802 1.33319L29.7434 0.836646C27.7116 1.07671 25.6711 1.44385 23.6263 1.9338L23.7428 2.42004C21.7783 2.89075 19.8088 3.47609 17.8385 4.17246L17.6719 3.70104C15.756 4.37816 13.8402 5.15911 11.9281 6.04045L12.1374 6.49453C10.3069 7.3383 8.47894 8.27511 6.65695 9.30206L6.41145 8.86648C4.64127 9.86423 2.87726 10.9462 1.12238 12.1096L1.39867 12.5264C-0.280357 13.6395 -1.95154 14.8281 -3.61224 16.0897L-3.9147 15.6915C-5.53117 16.9195 -7.13737 18.2161 -8.73092 19.5791L-8.40592 19.9591C-9.9444 21.275 -11.4714 22.6533 -12.9847 24.0923L-13.3292 23.7299C-14.8017 25.13 -16.261 26.5869 -17.7052 28.0989L-17.3436 28.4443C-18.7413 29.9076 -20.125 31.4229 -21.4929 32.9887L-21.8694 32.6597C-23.2074 34.1913 -24.5302 35.7707 -25.8361 37.3965L-25.4463 37.7096C-26.7169 39.2916 -27.9716 40.9177 -29.2088 42.5868L-29.6105 42.289C-30.8237 43.9256 -32.02 45.6031 -33.198 47.3203L-32.7857 47.6031C-33.9355 49.2792 -35.0679 50.9933 -36.1815 52.7442L-36.6034 52.4759C-37.6979 54.1968 -38.7742 55.953 -39.8311 57.7435L-39.4006 57.9977C-40.435 59.7501 -41.4508 61.5355 -42.4468 63.3528L-42.8853 63.1125C-43.8663 64.9024 -44.828 66.7231 -45.7693 68.5736L-45.3236 68.8003C-46.2472 70.6157 -47.151 72.46 -48.0341 74.332L-48.4863 74.1187C-49.3577 75.966 -50.209 77.8403 -51.0389 79.7406L-50.5807 79.9407C-51.3967 81.8088 -52.192 83.7022 -52.9658 85.6199L-53.4295 85.4328C-54.1943 87.3283 -54.938 89.2474 -55.6597 91.1894L-55.1911 91.3636C-55.9018 93.2759 -56.5911 95.2105 -57.2581 97.1664L-57.7313 97.0051C-58.0636 97.9795 -58.3904 98.9591 -58.7115 99.944C-59.0182 100.885 -59.3183 101.826 -59.6115 102.766L-59.1342 102.915C-59.7219 104.799 -60.2825 106.682 -60.8163 108.563L-61.2973 108.426C-61.8375 110.329 -62.3502 112.23 -62.8357 114.128L-62.3514 114.251C-62.8409 116.164 -63.3027 118.073 -63.7369 119.978L-64.2244 119.867C-64.6645 121.796 -65.0765 123.721 -65.4605 125.64L-64.9702 125.738C-65.3579 127.676 -65.7171 129.607 -66.048 131.531L-66.5408 131.446C-66.8769 133.4 -67.1839 135.346 -67.462 137.284L-66.967 137.355C-67.2482 139.313 -67.4998 141.263 -67.722 143.202L-68.2188 143.145C-68.4447 145.116 -68.6405 147.077 -68.8063 149.025L-68.3081 149.067C-68.476 151.041 -68.6131 153.001 -68.7196 154.947L-69.2189 154.92C-69.3274 156.903 -69.4044 158.872 -69.45 160.825L-68.9502 160.837C-68.9965 162.818 -69.0104 164.783 -68.9924 166.73L-69.4923 166.734C-69.4739 168.723 -69.422 170.693 -69.3372 172.642L-68.8376 172.62C-68.7513 174.603 -68.6308 176.563 -68.4763 178.5L-68.9747 178.54C-68.8163 180.526 -68.6225 182.487 -68.3934 184.421L-67.8969 184.363C-67.6629 186.339 -67.3922 188.287 -67.085 190.205L-67.5787 190.284C-67.2627 192.258 -66.9083 194.2 -66.5159 196.109L-66.0261 196.008C-65.6248 197.96 -65.1836 199.876 -64.703 201.754L-65.1874 201.878C-64.6912 203.818 -64.1531 205.717 -63.5735 207.573L-63.0963 207.424C-62.5023 209.327 -61.8648 211.183 -61.1843 212.992L-61.6523 213.168C-60.9455 215.046 -60.1924 216.872 -59.3936 218.644L-58.9378 218.438C-58.1153 220.262 -57.2443 222.027 -56.3254 223.729L-56.7654 223.967C-55.8108 225.735 -54.8045 227.437 -53.7472 229.068L-53.3276 228.796C-52.2411 230.472 -51.1007 232.073 -49.9074 233.593L-50.3007 233.902C-49.0584 235.485 -47.7587 236.982 -46.4022 238.389L-46.0423 238.042C-44.662 239.474 -43.2232 240.81 -41.7269 242.046L-42.0453 242.431C-40.5017 243.706 -38.8969 244.876 -37.232 245.934L-36.9638 245.512C-35.302 246.569 -33.5802 247.513 -31.7997 248.339L-32.0101 248.792C-31.1096 249.21 -30.1942 249.598 -29.264 249.955C-28.2874 250.33 -27.3037 250.668 -26.3137 250.969L-26.1682 250.491C-24.1918 251.092 -22.1899 251.545 -20.1677 251.854L-20.2433 252.349C-18.1936 252.662 -16.1237 252.829 -14.0389 252.855L-14.0327 252.355C-11.9982 252.38 -9.9487 252.268 -7.88892 252.025L-7.83025 252.522C-5.79852 252.282 -3.75798 251.914 -1.7132 251.424L-1.8297 250.938C0.134796 250.467 2.10427 249.882 4.07462 249.186L4.24123 249.657C6.15713 248.98 8.07294 248.199 9.985 247.318L9.7757 246.864C11.6063 246.02 13.4342 245.083 15.2562 244.056L15.5017 244.492C17.2719 243.494 19.0359 242.412 20.7907 241.249L20.5145 240.832C22.1935 239.719 23.8647 238.53 25.5254 237.269L25.8278 237.667C27.4443 236.439 29.0505 235.142 30.644 233.779L30.319 233.399C31.8575 232.083 33.3845 230.705 34.8978 229.266L35.2423 229.628C36.7148 228.228 38.1741 226.771 39.6183 225.259L39.2567 224.914C40.6544 223.451 42.0381 221.935 43.406 220.37L43.7826 220.699C45.1206 219.167 46.4433 217.588 47.7492 215.962L47.3594 215.649C48.63 214.067 49.8847 212.44 51.122 210.771L51.5236 211.069C52.7368 209.433 53.9331 207.755 55.1111 206.038L54.6988 205.755C55.4906 204.601 56.2741 203.429 57.049 202.239C57.7304 203.171 58.4359 204.072 59.165 204.941L59.5479 204.619C60.8335 206.151 62.1926 207.579 63.623 208.895L63.2845 209.263C64.7664 210.626 66.325 211.871 67.9582 212.99L68.2408 212.577C69.8714 213.694 71.5766 214.682 73.354 215.532L73.1382 215.983C74.037 216.413 74.9539 216.808 75.8889 217.167C76.7993 217.517 77.7162 217.828 78.6388 218.103L78.7813 217.623C80.627 218.172 82.4959 218.569 84.3812 218.819L84.3154 219.314C86.2327 219.568 88.1661 219.673 90.1087 219.633L90.0985 219.133C91.9916 219.095 93.8944 218.918 95.8003 218.607L95.8808 219.1C97.7614 218.794 99.6439 218.359 101.522 217.801L101.38 217.322C103.18 216.787 104.977 216.138 106.765 215.378L106.961 215.839C108.703 215.099 110.437 214.256 112.157 213.314L111.917 212.875Z" stroke="white" stroke-dasharray="6 6" shape-rendering="crispEdges"/>
</g>
<defs>
<filter id="filter0_d_15_173" x="-73.9923" y="0.00350952" width="510.992" height="344.988" filterUnits="userSpaceOnUse" color-interpolation-filters="sRGB">
<feFlood flood-opacity="0" result="BackgroundImageFix"/>
<feColorMatrix in="SourceAlpha" type="matrix" values="0 0 0 0 0 0 0 0 0 0 0 0 0 0 0 0 0 0 127 0" result="hardAlpha"/>
<feOffset dy="4"/>
<feGaussianBlur stdDeviation="2"/>
<feComposite in2="hardAlpha" operator="out"/>
<feColorMatrix type="matrix" values="0 0 0 0 0 0 0 0 0 0 0 0 0 0 0 0 0 0 0.25 0"/>
<feBlend mode="normal" in2="BackgroundImageFix" result="effect1_dropShadow_15_173"/>
<feBlend mode="normal" in="SourceGraphic" in2="effect1_dropShadow_15_173" result="shape"/>
</filter>
</defs>
</svg>
