<svg width="17" height="14" viewBox="0 0 17 14" fill="none" xmlns="http://www.w3.org/2000/svg">
<path d="M9.17131 0.967519C9.28704 0.961407 9.40356 0.958313 9.52081 0.958313C13.1222 0.958313 16.0416 3.87779 16.0416 7.47916C16.0416 11.0805 13.1222 14 9.52081 14C8.28476 14 7.12904 13.6561 6.1441 13.0587C9.58297 12.8771 12.3155 10.0312 12.3155 6.5471C12.3155 4.18179 11.0561 2.11061 9.17131 0.967519Z" fill="#793FB4"/>
<path d="M4.69637 8.30288L4.69638 8.30289L4.69638 8.30289C4.88401 8.8658 4.97783 9.14726 5.1042 9.24114C5.28124 9.37268 5.52355 9.37268 5.70059 9.24114C5.82695 9.14726 5.92077 8.8658 6.10841 8.30289L6.10841 8.30289L6.10841 8.30288C6.25932 7.85015 6.33478 7.62378 6.4533 7.42969C6.6189 7.15849 6.84673 6.93066 7.11792 6.76507C7.31201 6.64654 7.53838 6.57109 7.99111 6.42018L7.99112 6.42018L7.99112 6.42017C8.55403 6.23254 8.83549 6.13872 8.92937 6.01235C9.06091 5.83532 9.06091 5.593 8.92937 5.41596C8.83549 5.2896 8.55403 5.19578 7.99112 5.00814L7.99112 5.00814L7.99111 5.00814C7.53838 4.85723 7.31201 4.78178 7.11792 4.66325C6.84673 4.49766 6.6189 4.26982 6.4533 3.99863C6.33478 3.80454 6.25932 3.57817 6.10841 3.12544L6.10841 3.12543L6.10841 3.12543C5.92077 2.56252 5.82695 2.28106 5.70059 2.18718C5.52355 2.05564 5.28124 2.05564 5.1042 2.18718C4.97783 2.28106 4.88401 2.56252 4.69638 3.12543L4.69638 3.12543L4.69637 3.12544C4.54546 3.57817 4.47001 3.80454 4.35149 3.99863C4.18589 4.26982 3.95806 4.49766 3.68687 4.66325C3.49277 4.78178 3.2664 4.85723 2.81367 5.00814L2.81367 5.00814L2.81366 5.00814C2.25075 5.19578 1.9693 5.2896 1.87541 5.41596C1.74387 5.593 1.74387 5.83532 1.87541 6.01235C1.9693 6.13872 2.25075 6.23254 2.81366 6.42017L2.81367 6.42018L2.81367 6.42018C3.2664 6.57109 3.49277 6.64654 3.68687 6.76507C3.95806 6.93066 4.18589 7.15849 4.35149 7.42969C4.47001 7.62378 4.54546 7.85015 4.69637 8.30288Z" fill="#793FB4"/>
</svg>
